<svg width="94" height="94" viewBox="0 0 94 94" fill="none" xmlns="http://www.w3.org/2000/svg">
<path d="M67.3473 56.334C67.7207 53.254 68.0007 50.174 68.0007 47.0007C68.0007 43.8273 67.7207 40.7473 67.3473 37.6673H83.1207C83.8673 40.654 84.334 43.7807 84.334 47.0007C84.334 50.2207 83.8673 53.3473 83.1207 56.334M59.0873 82.2807C61.8873 77.1007 64.034 71.5006 65.5273 65.6673H79.294C74.7728 73.4526 67.5999 79.35 59.0873 82.2807ZM57.9207 56.334H36.0807C35.614 53.254 35.334 50.174 35.334 47.0007C35.334 43.8273 35.614 40.7007 36.0807 37.6673H57.9207C58.3407 40.7007 58.6673 43.8273 58.6673 47.0007C58.6673 50.174 58.3407 53.254 57.9207 56.334ZM47.0007 84.1473C43.1273 78.5473 40.0007 72.3406 38.0873 65.6673H55.914C54.0006 72.3406 50.874 78.5473 47.0007 84.1473ZM28.334 28.334H14.7073C19.182 20.5277 26.3497 14.6209 34.8673 11.7207C32.0673 16.9007 29.9673 22.5007 28.334 28.334ZM14.7073 65.6673H28.334C29.9673 71.5006 32.0673 77.1007 34.8673 82.2807C26.3676 79.3484 19.2099 73.45 14.7073 65.6673ZM10.8807 56.334C10.134 53.3473 9.66732 50.2207 9.66732 47.0007C9.66732 43.7807 10.134 40.654 10.8807 37.6673H26.654C26.2807 40.7473 26.0007 43.8273 26.0007 47.0007C26.0007 50.174 26.2807 53.254 26.654 56.334M47.0007 9.80732C50.874 15.4073 54.0006 21.6607 55.914 28.334H38.0873C40.0007 21.6607 43.1273 15.4073 47.0007 9.80732ZM79.294 28.334H65.5273C64.0668 22.5541 61.904 16.9748 59.0873 11.7207C67.674 14.6607 74.814 20.5873 79.294 28.334ZM47.0007 0.333984C21.194 0.333984 0.333984 21.334 0.333984 47.0007C0.333984 59.3774 5.25064 71.2473 14.0023 79.999C18.3357 84.3324 23.4802 87.7698 29.1421 90.115C34.804 92.4603 40.8723 93.6673 47.0007 93.6673C59.3774 93.6673 71.2473 88.7507 79.999 79.999C88.7507 71.2473 93.6673 59.3774 93.6673 47.0007C93.6673 40.8723 92.4603 34.804 90.115 29.1421C87.7698 23.4802 84.3324 18.3357 79.999 14.0023C75.6656 9.66893 70.5211 6.23149 64.8592 3.88627C59.1974 1.54105 53.129 0.333984 47.0007 0.333984Z" fill="black"/>
</svg>
