<svg width="148" height="110" viewBox="0 0 148 110" fill="none" xmlns="http://www.w3.org/2000/svg">
<path d="M42.665 89.1546C51.4026 107.066 73.96 112.262 93.7636 101.871L123.225 76.0756C132.883 68.4123 140.055 59.55 144.741 49.485C151.77 10.3066 108.188 -8.21371 88.3846 10.3066L60.3273 36.7726C58.494 39.0533 56.3746 39.3613 53.973 37.6893L47.1896 29.927C42.665 24.1813 20.72 27.0523 29.278 46.7936L46.636 63.972C50.4273 66.8466 56.536 72.4053 63.8106 65.0133L99.8173 31.456C117.663 19.4733 125.667 40.0103 118.03 47.4683C94.6363 71.7563 80.3546 84.8353 75.181 86.7126C70.8396 91.0503 53.1773 94.9626 42.665 89.1546ZM42.665 89.1546C26.8946 79.3353 14.769 68.1703 6.29164 55.6596C-11.609 21.0023 38.023 -19.397 68.5223 17.3943L73.9636 24.3023" stroke="white" stroke-width="5" stroke-linecap="round" stroke-linejoin="round"/>
</svg>
