<svg width="116" height="111" viewBox="0 0 116 111" fill="none" xmlns="http://www.w3.org/2000/svg">
<path d="M112.653 17.9777L59.4034 0.227751C58.4924 -0.0759169 57.5076 -0.0759169 56.5966 0.227751L3.34664 17.9777C2.46305 18.2723 1.69454 18.8374 1.14999 19.593C0.605429 20.3486 0.312431 21.2564 0.3125 22.1878V66.5628C0.3125 67.7397 0.780021 68.8684 1.61221 69.7006C2.44441 70.5328 3.5731 71.0003 4.75 71.0003C5.9269 71.0003 7.05559 70.5328 7.88779 69.7006C8.71998 68.8684 9.1875 67.7397 9.1875 66.5628V28.3449L27.8195 34.5518C22.8692 42.5493 21.295 52.1844 23.4426 61.3416C25.5902 70.4987 31.284 78.4293 39.2738 83.392C29.2894 87.3081 20.6584 94.3915 14.3461 104.076C14.0178 104.564 13.7898 105.113 13.6753 105.689C13.5607 106.266 13.562 106.86 13.679 107.436C13.796 108.013 14.0264 108.56 14.3568 109.047C14.6872 109.533 15.111 109.949 15.6036 110.27C16.0962 110.592 16.6477 110.812 17.2261 110.918C17.8045 111.024 18.3982 111.014 18.9728 110.889C19.5474 110.764 20.0914 110.526 20.5731 110.188C21.0548 109.851 21.4647 109.421 21.7789 108.924C30.138 96.0999 43.3396 88.7503 58 88.7503C72.6604 88.7503 85.862 96.0999 94.2211 108.924C94.8719 109.892 95.8773 110.564 97.0199 110.796C98.1625 111.028 99.3505 110.801 100.327 110.164C101.304 109.527 101.99 108.531 102.239 107.392C102.487 106.253 102.277 105.062 101.654 104.076C95.3416 94.3915 86.6773 87.3081 76.7262 83.392C84.7084 78.4295 90.3967 70.5041 92.544 61.3536C94.6912 52.2032 93.122 42.5747 88.1805 34.5795L112.653 26.4256C113.537 26.1313 114.306 25.5662 114.851 24.8106C115.395 24.055 115.688 23.1471 115.688 22.2156C115.688 21.284 115.395 20.3762 114.851 19.6205C114.306 18.8649 113.537 18.2999 112.653 18.0055V17.9777ZM84.625 53.2503C84.6262 57.4596 83.6294 61.6092 81.7163 65.3586C79.8032 69.108 77.0285 72.3505 73.6196 74.8198C70.2108 77.2892 66.265 78.9152 62.1061 79.5644C57.9472 80.2135 53.6936 79.8673 49.6944 78.5543C45.6951 77.2412 42.0642 74.9986 39.0995 72.0106C36.1348 69.0225 33.9208 65.3741 32.6392 61.3647C31.3575 57.3552 31.0448 53.0991 31.7266 48.9454C32.4084 44.7917 34.0653 40.8588 36.5613 37.4695L56.5966 44.1257C57.5076 44.4294 58.4924 44.4294 59.4034 44.1257L79.4387 37.4695C82.81 42.0401 84.6277 47.5709 84.625 53.2503Z" fill="black"/>
</svg>
