<svg width="24" height="24" viewBox="0 0 24 24" fill="none" xmlns="http://www.w3.org/2000/svg">
<g clip-path="url(#clip0_146_47)">
<path fill-rule="evenodd" clip-rule="evenodd" d="M18.75 9.00072C18.7531 10.447 18.2885 11.8556 17.4255 13.0162L12 20.2507L6.5745 13.0162C5.93926 12.158 5.51668 11.1613 5.34148 10.108C5.16629 9.05471 5.24346 7.97488 5.56667 6.95722C5.88988 5.93955 6.44991 5.01308 7.20075 4.2539C7.95159 3.49473 8.87182 2.9245 9.88585 2.59007C10.8999 2.25564 11.9788 2.16655 13.0339 2.3301C14.0891 2.49366 15.0904 2.9052 15.9556 3.53093C16.8208 4.15665 17.5252 4.97871 18.011 5.92957C18.4968 6.88043 18.75 7.93296 18.75 9.00072ZM21 9.00072C21 11.0107 20.3415 12.8647 19.23 14.3617L13.4055 22.1257L12 24.0007L10.593 22.1257L4.77 14.3617C3.92203 13.2179 3.35756 11.8891 3.12298 10.4847C2.8884 9.08025 2.99039 7.64019 3.42058 6.28284C3.85078 4.92548 4.59689 3.68957 5.59762 2.67665C6.59835 1.66372 7.82514 0.902695 9.17718 0.456096C10.5292 0.00949644 11.9679 -0.109931 13.3751 0.107627C14.7823 0.325185 16.1178 0.873519 17.2718 1.70758C18.4259 2.54163 19.3655 3.63761 20.0137 4.90545C20.6618 6.1733 20.9998 7.57683 21 9.00072ZM12 12.0007C12.7957 12.0007 13.5587 11.6847 14.1213 11.122C14.6839 10.5594 15 9.79637 15 9.00072C15 8.20507 14.6839 7.44201 14.1213 6.8794C13.5587 6.31679 12.7957 6.00072 12 6.00072C11.2044 6.00072 10.4413 6.31679 9.87868 6.8794C9.31607 7.44201 9 8.20507 9 9.00072C9 9.79637 9.31607 10.5594 9.87868 11.122C10.4413 11.6847 11.2044 12.0007 12 12.0007Z" fill="white"/>
</g>
<defs>
<clipPath id="clip0_146_47">
<rect width="24" height="24" fill="white"/>
</clipPath>
</defs>
</svg>
