<svg width="14" height="18" viewBox="0 0 14 18" fill="none" xmlns="http://www.w3.org/2000/svg">
<path d="M6.99997 1.99994L6.29297 1.29294L6.99997 0.585938L7.70697 1.29294L6.99997 1.99994ZM7.99997 16.9999C7.99997 17.2652 7.89461 17.5195 7.70708 17.707C7.51954 17.8946 7.26519 17.9999 6.99997 17.9999C6.73475 17.9999 6.4804 17.8946 6.29286 17.707C6.10533 17.5195 5.99997 17.2652 5.99997 16.9999H7.99997ZM0.292969 7.29294L6.29297 1.29294L7.70697 2.70694L1.70697 8.70694L0.292969 7.29294ZM7.70697 1.29294L13.707 7.29294L12.293 8.70694L6.29297 2.70694L7.70697 1.29294ZM7.99997 1.99994V16.9999H5.99997V1.99994H7.99997Z" fill="white"/>
</svg>
